<svg width="120" height="120" viewBox="0 0 120 120" fill="none" xmlns="http://www.w3.org/2000/svg">
<path fill-rule="evenodd" clip-rule="evenodd" d="M-1.52588e-05 14.9999C-1.52588e-05 6.71567 6.71571 -6.10352e-05 15 -6.10352e-05H105C113.284 -6.10352e-05 120 6.71567 120 14.9999V105C120 113.284 113.284 120 105 120H15C6.71571 120 -1.52588e-05 113.284 -1.52588e-05 105V14.9999ZM56.1895 11.933C57.3745 8.22203 62.6254 8.22202 63.8104 11.933L73.7475 43.0526C74.2769 44.7105 75.8175 45.8358 77.5579 45.8358H109.861C113.719 45.8358 115.341 50.7588 112.239 53.0523L85.9861 72.4605C85.6683 72.6955 85.3932 72.9711 85.1643 73.2761L107.639 92.1345C110.177 94.2645 110.508 98.049 108.378 100.587C106.248 103.126 102.464 103.457 99.9253 101.327L89.5849 92.6503L94.5527 108.208C95.7334 111.906 91.4855 114.949 88.3644 112.641L62.3779 93.4297C60.9647 92.385 59.0352 92.385 57.6221 93.4297L31.6356 112.641C28.5144 114.949 24.2665 111.906 25.4472 108.208L35.4464 76.8937C35.9676 75.2617 35.3915 73.479 34.0139 72.4605L7.76134 53.0523C4.65905 50.7588 6.2812 45.8358 10.1392 45.8358H33.7936L12.5963 28.0492C10.0578 25.9192 9.7267 22.1347 11.8567 19.5962C13.9867 17.0578 17.7713 16.7267 20.3097 18.8567L46.8638 41.1382L56.1895 11.933Z" fill="#D1D0FB"/>
<path d="M13.5712 21.0642C14.9912 19.3719 17.5142 19.1511 19.2065 20.5712L106.536 93.8489C108.228 95.2689 108.449 97.792 107.029 99.4843V99.4843C105.609 101.177 103.086 101.397 101.393 99.9773L14.0642 26.6995C12.3719 25.2795 12.1511 22.7565 13.5712 21.0642V21.0642Z" fill="#D1D0FB"/>
</svg>
