<svg width="120" height="120" viewBox="0 0 120 120" fill="none" xmlns="http://www.w3.org/2000/svg">
<path fill-rule="evenodd" clip-rule="evenodd" d="M15 0C6.71573 0 0 6.71573 0 15V105C0 113.284 6.71573 120 15 120H105C113.284 120 120 113.284 120 105V15C120 6.71573 113.284 0 105 0H15ZM63.8105 11.9331C62.6255 8.22208 57.3745 8.22209 56.1895 11.9331L46.2525 43.0527C45.7231 44.7106 44.1825 45.8359 42.4421 45.8359H10.1392C6.28122 45.8359 4.65906 50.7589 7.76136 53.0524L34.0139 72.4606C35.3915 73.4791 35.9676 75.2618 35.4465 76.8938L25.4472 108.208C24.2666 111.906 28.5145 114.949 31.6356 112.641L57.6221 93.4298C59.0352 92.3851 60.9648 92.3851 62.3779 93.4298L88.3644 112.641C91.4856 114.949 95.7334 111.906 94.5528 108.208L84.5535 76.8938C84.0324 75.2618 84.6085 73.4791 85.9861 72.4606L112.239 53.0524C115.341 50.7589 113.719 45.8359 109.861 45.8359H77.5579C75.8175 45.8359 74.2769 44.7106 73.7475 43.0527L63.8105 11.9331Z" fill="#D1D0FB"/>
</svg>
